<svg width="16" height="18" viewBox="0 0 16 18" fill="none" xmlns="http://www.w3.org/2000/svg">
<path d="M5.21293 13.1667V14C5.21293 14.663 5.47632 15.2989 5.94516 15.7678C6.41401 16.2366 7.04989 16.5 7.71293 16.5C8.37597 16.5 9.01186 16.2366 9.4807 15.7678C9.94954 15.2989 10.2129 14.663 10.2129 14V13.1667M6.04626 3.16667C6.04626 2.72464 6.22186 2.30072 6.53442 1.98816C6.84698 1.67559 7.2709 1.5 7.71293 1.5C8.15496 1.5 8.57888 1.67559 8.89144 1.98816C9.204 2.30072 9.3796 2.72464 9.3796 3.16667C10.3366 3.61919 11.1524 4.32361 11.7396 5.20442C12.3268 6.08523 12.6633 7.10923 12.7129 8.16667V10.6667C12.7756 11.1848 12.9591 11.6809 13.2486 12.1151C13.5381 12.5493 13.9255 12.9095 14.3796 13.1667H1.04626C1.50038 12.9095 1.88777 12.5493 2.17725 12.1151C2.46674 11.6809 2.65022 11.1848 2.71293 10.6667V8.16667C2.76256 7.10923 3.09902 6.08523 3.68622 5.20442C4.27343 4.32361 5.08926 3.61919 6.04626 3.16667Z" stroke="#1D1D1F" stroke-width="1.5" stroke-linecap="round" stroke-linejoin="round"/>
</svg>
