<svg width="23" height="24" viewBox="0 0 23 24" fill="none" xmlns="http://www.w3.org/2000/svg">
<path fill-rule="evenodd" clip-rule="evenodd" d="M10.285 0.823486C7.47755 0.823486 5.20166 3.09937 5.20166 5.90682C5.20166 8.71427 7.47755 10.9902 10.285 10.9902C13.0924 10.9902 15.3683 8.71427 15.3683 5.90682C15.3683 3.09937 13.0924 0.823486 10.285 0.823486ZM7.20166 5.90682C7.20166 4.20394 8.58212 2.82349 10.285 2.82349C11.9879 2.82349 13.3683 4.20394 13.3683 5.90682C13.3683 7.6097 11.9879 8.99015 10.285 8.99015C8.58212 8.99015 7.20166 7.6097 7.20166 5.90682ZM19.0352 21.6568V17.634L17.982 18.6871C17.6891 18.98 17.2142 18.98 16.9213 18.6871C16.6284 18.3943 16.6284 17.9194 16.9213 17.6265L19.2547 15.2932C19.3437 15.2041 19.4496 15.1421 19.5621 15.1072C19.6208 15.0889 19.6826 15.0777 19.7466 15.0745C19.7593 15.0738 19.7722 15.0735 19.7852 15.0735C19.997 15.0735 20.1883 15.1613 20.3247 15.3026L22.6487 17.6265C22.9416 17.9194 22.9416 18.3943 22.6487 18.6871C22.3558 18.98 21.8809 18.98 21.588 18.6871L20.5352 17.6343V21.6568C20.5352 22.071 20.1994 22.4068 19.7852 22.4068C19.3709 22.4068 19.0352 22.071 19.0352 21.6568ZM9.86833 13.6569H9.85665H9.85651C9.71292 13.6569 9.62809 13.6569 9.5544 13.6581C4.69912 13.7375 0.782317 17.6543 0.702865 22.5096C0.70166 22.5833 0.70166 22.6682 0.70166 22.8118V22.8235C0.70166 23.3758 1.14938 23.8235 1.70166 23.8235H13.9517C14.5039 23.8235 14.9517 23.3758 14.9517 22.8235C14.9517 22.2712 14.5039 21.8235 13.9517 21.8235H2.75094C3.15918 18.3866 6.05362 15.7156 9.58713 15.6578C9.64233 15.6569 9.70963 15.6569 9.86833 15.6569H13.9517C14.5039 15.6569 14.9517 15.2091 14.9517 14.6569C14.9517 14.1046 14.5039 13.6569 13.9517 13.6569H9.86833Z" fill="white"/>
</svg>
