<svg width="22" height="18" viewBox="0 0 22 18" fill="none" xmlns="http://www.w3.org/2000/svg">
<path fill-rule="evenodd" clip-rule="evenodd" d="M3.61758 0.773612C3.2164 0.394037 2.58348 0.411546 2.20391 0.812721C1.82433 1.2139 1.84184 1.84682 2.24302 2.22639L4.78089 4.62762C3.25166 5.9125 1.97544 7.46741 1.02013 9.21546C0.861768 9.50524 0.856677 9.85452 1.00653 10.1488L1.89764 9.69502C1.00653 10.1488 1.0067 10.1491 1.00688 10.1495L1.00731 10.1503L1.0084 10.1525L1.0115 10.1585L1.02141 10.1775C1.02965 10.1933 1.04116 10.215 1.05593 10.2424C1.08546 10.2972 1.12804 10.3746 1.18348 10.4714C1.29428 10.6648 1.4569 10.9364 1.66986 11.2602C2.09455 11.9058 2.72591 12.7689 3.55341 13.6356C5.19147 15.3512 7.71143 17.195 11 17.195L11.0161 17.1949C12.9024 17.1646 14.7342 16.5726 16.2704 15.4985L18.0966 17.2264C18.4977 17.606 19.1307 17.5885 19.5102 17.1873C19.8898 16.7861 19.8723 16.1532 19.4711 15.7736L3.61758 0.773612ZM14.7785 14.087L13.072 12.4724C12.8497 12.6425 12.6071 12.7857 12.3493 12.8985C11.9233 13.0848 11.4642 13.1847 10.9992 13.1928C10.5342 13.2008 10.0719 13.1169 9.6397 12.9455C9.20747 12.7741 8.81362 12.5184 8.48211 12.1929C8.15055 11.8674 7.88814 11.4786 7.71149 11.0491C7.53483 10.6197 7.44783 10.159 7.45617 9.69486C7.46451 9.23068 7.568 8.77343 7.7599 8.35054C7.85335 8.14461 7.96677 7.94901 8.09815 7.76629L6.24456 6.0125C4.96851 7.04991 3.8871 8.29702 3.04835 9.69733C3.12805 9.82957 3.22567 9.98607 3.3408 10.1611C3.71774 10.7342 4.2759 11.4961 4.99994 12.2544C6.46339 13.7872 8.49185 15.192 10.992 15.195C12.3391 15.1719 13.6481 14.786 14.7785 14.087ZM9.58356 9.17173C9.58276 9.17348 9.58196 9.17524 9.58116 9.177C9.5017 9.35211 9.45927 9.5404 9.45585 9.73079C9.45243 9.92118 9.48806 10.1107 9.56111 10.2883C9.63417 10.4659 9.74343 10.6285 9.88334 10.7659C10.0233 10.9033 10.191 11.0126 10.377 11.0864C10.5631 11.1601 10.7629 11.1966 10.9646 11.1931C11.1662 11.1896 11.3645 11.1462 11.5476 11.0661C11.5563 11.0624 11.5649 11.0585 11.5735 11.0545L9.58356 9.17173ZM9.48628 4.36462C9.98158 4.25078 10.4888 4.19385 10.9977 4.19503L11 4.19503C13.5038 4.19503 15.5351 5.60122 17.0001 7.1356C17.7241 7.89391 18.2823 8.65585 18.6592 9.22893C18.7746 9.40439 18.8724 9.56122 18.9523 9.69366C18.5438 10.3783 18.0767 11.0282 17.5557 11.6362C17.1963 12.0555 17.2449 12.6868 17.6643 13.0462C18.0836 13.4056 18.7149 13.357 19.0743 12.9376C19.8058 12.0841 20.4447 11.1576 20.9807 10.1732C21.1383 9.88362 21.1431 9.53501 20.9935 9.24124L20.1024 9.69502C20.9935 9.24124 20.9933 9.24091 20.9931 9.24055L20.9927 9.23971L20.9916 9.23758L20.9885 9.23155L20.9786 9.21251C20.9704 9.19678 20.9589 9.17501 20.9441 9.1476C20.9146 9.09281 20.872 9.01541 20.8165 8.91864C20.7057 8.72523 20.5431 8.45364 20.3302 8.12987C19.9055 7.48419 19.2741 6.62113 18.4466 5.75446C16.8087 4.03903 14.2892 2.19546 11.0012 2.19503H11V3.19503L11.0023 2.19503L11.0012 2.19503C10.3405 2.19359 9.68179 2.26754 9.03829 2.41544C8.50004 2.53915 8.16399 3.07577 8.2877 3.61402C8.4114 4.15228 8.94803 4.48833 9.48628 4.36462ZM20.1024 9.69502L19.2241 9.21689C19.1366 9.37758 19.046 9.53654 18.9523 9.69366C19.0023 9.77679 19.0453 9.85032 19.0811 9.91281C19.1275 9.99377 19.1617 10.056 19.1835 10.0964C19.1944 10.1166 19.2022 10.1314 19.2068 10.1402L19.2114 10.1491L19.2115 10.1493C19.2114 10.1491 19.2113 10.1488 20.1024 9.69502Z" fill="#363636"/>
</svg>
