<svg width="19" height="21" viewBox="0 0 19 21" fill="none" xmlns="http://www.w3.org/2000/svg">
<path fill-rule="evenodd" clip-rule="evenodd" d="M8.56785 2.4396C8.80227 2.20518 9.12021 2.07349 9.45173 2.07349C9.78325 2.07349 10.1012 2.20518 10.3356 2.4396C10.57 2.67402 10.7017 2.99197 10.7017 3.32349C10.7017 3.61351 10.8689 3.87753 11.1311 4.00151C12.1565 4.48635 13.0306 5.24109 13.6597 6.18481C14.2857 7.1238 14.6457 8.21466 14.7017 9.34157V12.3235C14.7017 12.3536 14.7035 12.3837 14.7072 12.4136C14.7965 13.1519 15.058 13.8589 15.4705 14.4776C15.492 14.5099 15.5139 14.5418 15.5361 14.5735H12.4517H6.45173H3.36735C3.38959 14.5418 3.41146 14.5099 3.43295 14.4776C3.84547 13.8589 4.10693 13.1519 4.19629 12.4136C4.19991 12.3837 4.20173 12.3536 4.20173 12.3235V9.34157C4.25771 8.21466 4.61773 7.1238 5.24372 6.18481C5.86995 5.24546 6.73886 4.49336 7.75807 4.00827C7.79395 3.9922 7.82833 3.97339 7.86096 3.95211C7.95341 3.89209 8.02907 3.81399 8.08542 3.72484C8.16329 3.60163 8.20429 3.45729 8.2018 3.31033C8.20523 2.98356 8.33653 2.67092 8.56785 2.4396ZM5.70173 16.0735H1.45173C1.11111 16.0735 0.813265 15.844 0.726481 15.5146C0.639696 15.1852 0.785768 14.8387 1.08216 14.6709C1.52493 14.4201 1.90263 14.069 2.18488 13.6456C2.45919 13.2341 2.63588 12.7656 2.70173 12.2759V9.32349C2.70173 9.31176 2.702 9.30004 2.70255 9.28832C2.7685 7.88344 3.21549 6.52298 3.99564 5.35276C4.69541 4.30311 5.63955 3.44201 6.74422 2.84184C6.84215 2.29139 7.10644 1.77969 7.50719 1.37894C8.02291 0.863218 8.72238 0.573486 9.45173 0.573486C10.1811 0.573486 10.8805 0.863218 11.3963 1.37894C11.797 1.77969 12.0613 2.2914 12.1592 2.84185C13.2639 3.44202 14.2081 4.30311 14.9078 5.35276C15.688 6.52298 16.135 7.88344 16.2009 9.28832C16.2015 9.30004 16.2017 9.31176 16.2017 9.32349V12.2759C16.2676 12.7656 16.4443 13.2341 16.7186 13.6456C17.0008 14.069 17.3785 14.4201 17.8213 14.6709C18.1177 14.8387 18.2638 15.1852 18.177 15.5146C18.0902 15.844 17.7923 16.0735 17.4517 16.0735H13.2017V16.3235C13.2017 17.318 12.8066 18.2719 12.1034 18.9751C11.4001 19.6784 10.4463 20.0735 9.45173 20.0735C8.45717 20.0735 7.50334 19.6784 6.80008 18.9751C6.09682 18.2719 5.70173 17.318 5.70173 16.3235V16.0735ZM11.7017 16.0735V16.3235C11.7017 16.9202 11.4647 17.4925 11.0427 17.9145C10.6208 18.3364 10.0485 18.5735 9.45173 18.5735C8.85499 18.5735 8.28269 18.3364 7.86074 17.9145C7.43878 17.4925 7.20173 16.9202 7.20173 16.3235V16.0735H11.7017Z" fill="#F3F5FF"/>
</svg>
