<svg width="21" height="18" viewBox="0 0 21 18" fill="none" xmlns="http://www.w3.org/2000/svg">
<path fill-rule="evenodd" clip-rule="evenodd" d="M6.95166 5.82349C8.05623 5.82349 8.95166 4.92806 8.95166 3.82349C8.95166 2.71892 8.05623 1.82349 6.95166 1.82349C5.84709 1.82349 4.95166 2.71892 4.95166 3.82349C4.95166 4.92806 5.84709 5.82349 6.95166 5.82349ZM6.95166 7.32349C8.7149 7.32349 10.1736 6.01963 10.4162 4.32349H19.7017C20.1159 4.32349 20.4517 3.9877 20.4517 3.57349C20.4517 3.15927 20.1159 2.82349 19.7017 2.82349H10.3067C9.87645 1.37774 8.53717 0.323486 6.95166 0.323486C5.36615 0.323486 4.02687 1.37774 3.5966 2.82349H1.20166C0.787447 2.82349 0.45166 3.15927 0.45166 3.57349C0.45166 3.9877 0.787447 4.32349 1.20166 4.32349H3.4871C3.72972 6.01963 5.18842 7.32349 6.95166 7.32349ZM19.7017 14.8235C20.1159 14.8235 20.4517 14.4877 20.4517 14.0735C20.4517 13.6593 20.1159 13.3235 19.7017 13.3235H17.4162C17.1736 11.6273 15.7149 10.3235 13.9517 10.3235C12.1884 10.3235 10.7297 11.6273 10.4871 13.3235H1.20166C0.787447 13.3235 0.45166 13.6593 0.45166 14.0735C0.45166 14.4877 0.787447 14.8235 1.20166 14.8235H10.5966C11.0269 16.2692 12.3661 17.3235 13.9517 17.3235C15.5372 17.3235 16.8764 16.2692 17.3067 14.8235H19.7017ZM11.9517 13.8235C11.9517 14.9281 12.8471 15.8235 13.9517 15.8235C15.0562 15.8235 15.9517 14.9281 15.9517 13.8235C15.9517 12.7189 15.0562 11.8235 13.9517 11.8235C12.8471 11.8235 11.9517 12.7189 11.9517 13.8235Z" fill="#F3F5FF"/>
</svg>
